<svg xmlns="http://www.w3.org/2000/svg" viewBox="0 0 433.76 431.87">
    <defs>
        <style>.cls-1{fill:#00a14b;}.cls-2{fill:#21409a;}</style>
    </defs>
    <title>infiltrator</title>
    <g id="Layer_2" data-name="Layer 2">
        <path d="M347.92,240.93c11.63-1.57,24.44-3.36,37.28-4.94a8.73,8.73,0,0,1,5.56,1.15q37.73,26.09,75.26,52.44c.25.17.39.51.86,1.16-41.39,7.19-83.07,12.47-122.58,31.45l48.36,23C325.15,359.53,269.6,390,236.49,465.93c-2.6-15.82.53-41.44,4.22-55.61,8.25-31.62,25.42-58.23,46.78-82.42,14.48-16.38,30.72-30.85,47.83-44.42,2.76-2.19,5.4-5.68,6.19-9C344.06,263.73,345.73,252.78,347.92,240.93Z" transform="translate(-33.12 -34.07)" />
        <path d="M231.76,409.84c-41.79-21-82.31-43.37-127-58.06l40.41-35C108,306.36,72.26,294,33.12,292.05c7.48-6.46,14.32-12.39,21.17-18.29,13.62-11.71,27.17-23.49,40.95-35a10.14,10.14,0,0,1,7-1.93q15.09,1.68,30.05,4.32a8.2,8.2,0,0,1,5.19,4.17c22.2,50.85,55.07,93.38,99,127.21,3.73,2.87,4.28,5.26,3,9.42C236.71,391,234.41,400.14,231.76,409.84Z" transform="translate(-33.12 -34.07)" />
        <path d="M243.26,242.86a10,10,0,0,0-7.51.54" transform="translate(-33.12 -34.07)" />
        <path class="cls-1" d="M238.75,243.4a5.12,5.12,0,0,0-3.24,4.51c-.65,16-17.4,31.39-34.13,34.21-8.08,1.36-16.07,1-23.43-2.62-8.13-4-12.08-10.4-13.65-18a34.18,34.18,0,0,1-.23-12.43c1.24-7.72,6.65-12.08,15.28-13.94,6.17-1.33,12.48-1.46,18.77-1.58,15.1-.31,30.21-.44,40.29-.57" transform="translate(-33.12 -34.07)" />
        <path class="cls-2" d="M238.41,232.94c20.4.21,35.78.32,51.15.56A83.66,83.66,0,0,1,308,235.34c8.08,2,13.08,6.19,14.23,13.46s.59,14.49-3.35,21.16c-4.74,8.05-12.78,12-23.17,12.68a40.93,40.93,0,0,1-26.53-6.93c-8.71-5.92-15.13-13.25-17.56-22.74a22.19,22.19,0,0,1-.71-4.84c-.09-2.74-1.81-4.42-4.62-5.27" transform="translate(-33.12 -34.07)" />
        <path d="M248.73,251.89C186.81,250.73,132.31,246,79.07,231.5a167.5,167.5,0,0,1-30.52-11.8c-11.1-5.53-11.2-11.85-.19-17.53a189.89,189.89,0,0,1,33.49-13.79c23.05-6.74,46.46-12.28,69.76-18.16a10.17,10.17,0,0,1,5.75.55c17.53,6.78,35.89,10,54.46,10.88,19.88.93,39.87.93,59.74,0,18.58-.87,36.94-4.07,54.47-10.87a9.71,9.71,0,0,1,5.26-.7c30.61,6.72,61.27,13.35,90.53,24.89a87.57,87.57,0,0,1,17.86,9.66c5.56,3.89,5.29,7.88-.13,12.06-9.53,7.34-20.88,10.77-32.21,14-34.61,9.86-70,15.15-105.83,18C281.64,250.22,261.71,251.11,248.73,251.89Z" transform="translate(-33.12 -34.07)" />
        <path d="M319.19,158.64c-34.63-174.49-34.42-121-70.93-100.81A22.93,22.93,0,0,1,225,57.24c-36.94-23-35.73-65.1-67.39,101.46C212,168.44,265.32,173.64,319.19,158.64Z" transform="translate(-33.12 -34.07)" />
    </g>
</svg>